<?xml version="1.0" standalone="no"?>
<!DOCTYPE svg PUBLIC "-//W3C//DTD SVG 20010904//EN"
 "http://www.w3.org/TR/2001/REC-SVG-20010904/DTD/svg10.dtd">
<svg version="1.0" xmlns="http://www.w3.org/2000/svg"
 width="501.000000pt" height="501.000000pt" viewBox="0 0 501.000000 501.000000"
 preserveAspectRatio="xMidYMid meet">
<metadata>
Created by potrace 1.14, written by Peter Selinger 2001-2017
</metadata>
<g transform="translate(0.000000,501.000000) scale(0.100000,-0.100000)"
fill="#000000" stroke="none">
<path d="M918 3409 c-6 -4 -10 -119 -10 -300 0 -254 -2 -291 -14 -274 -150
208 -460 253 -674 97 -99 -73 -178 -189 -204 -301 -18 -76 -14 -216 8 -286 39
-126 150 -252 271 -310 189 -89 396 -63 560 70 l56 46 -2 -53 c-1 -29 -1 -68
0 -85 l1 -33 65 0 65 0 0 715 c0 393 -3 715 -7 716 -38 4 -107 3 -115 -2z
m-271 -530 c101 -34 178 -106 227 -209 28 -59 31 -74 31 -165 0 -92 -3 -106
-32 -167 -39 -84 -114 -160 -189 -195 -82 -37 -197 -43 -284 -13 -297 100
-362 498 -113 690 101 77 242 100 360 59z"/>
<path d="M4558 3409 c-8 -5 -14 -1101 -9 -1381 1 -28 2 -28 65 -28 l63 0 0
705 c0 506 -3 705 -11 706 -47 4 -100 3 -108 -2z"/>
<path d="M4877 3340 c-79 -49 -27 -175 64 -155 56 13 82 96 42 137 -23 23 -81
32 -106 18z"/>
<path d="M1555 3015 c-115 -22 -220 -87 -297 -185 -129 -164 -147 -392 -46
-582 35 -65 123 -158 184 -194 188 -111 429 -89 610 54 42 33 124 128 124 144
0 2 -36 4 -79 3 -78 -1 -81 -1 -117 -38 -21 -21 -67 -52 -103 -70 -61 -30 -72
-32 -171 -32 -94 1 -111 3 -161 28 -115 56 -181 146 -213 290 l-6 27 446 0
446 0 -5 88 c-16 265 -215 464 -477 475 -41 2 -102 -1 -135 -8z m258 -148 c99
-45 200 -171 209 -262 l3 -29 -367 -1 c-423 0 -392 -10 -338 103 48 103 146
186 247 212 68 17 182 6 246 -23z"/>
<path d="M2728 3025 c-2 -2 -21 -5 -44 -8 -127 -18 -259 -110 -340 -238 -69
-110 -93 -288 -56 -421 49 -175 206 -326 377 -364 53 -12 158 -11 222 1 130
25 263 109 333 210 17 24 30 45 30 48 0 2 -35 3 -79 2 -77 -1 -79 -2 -117 -40
-96 -94 -257 -129 -395 -85 -125 40 -229 160 -245 283 l-7 47 442 0 441 0 0
68 c0 133 -50 252 -144 346 -67 67 -153 117 -232 136 -48 11 -179 22 -186 15z
m204 -157 c31 -15 77 -45 102 -68 47 -43 103 -143 112 -196 l4 -29 -367 0
-368 1 2 29 c4 47 53 136 104 186 47 46 114 85 173 100 61 16 177 4 238 -23z"/>
<path d="M3400 2310 l0 -715 65 -1 65 0 1 50 c0 28 0 160 0 294 0 133 3 242 7
242 4 0 15 -12 26 -28 21 -32 89 -88 143 -117 133 -74 335 -65 477 20 289 174
341 575 106 814 -133 135 -317 186 -501 140 -71 -19 -170 -67 -199 -98 -8 -9
-25 -24 -37 -35 l-22 -18 0 48 c1 27 0 65 0 85 l-1 35 -65 0 -65 -1 0 -715z
m640 572 c223 -75 331 -337 228 -552 -34 -70 -119 -153 -191 -186 -55 -26 -73
-29 -162 -29 -90 0 -106 3 -160 30 -147 71 -228 211 -221 383 3 72 8 93 40
157 51 104 143 179 250 206 49 12 167 7 216 -9z"/>
<path d="M4855 2505 l0 -505 65 0 65 0 0 505 0 505 -65 0 -66 0 1 -505z"/>
</g>
</svg>
